<svg width="51" height="51" viewBox="0 0 51 51" fill="none" xmlns="http://www.w3.org/2000/svg">
<path d="M49.6036 20.1403H47.5862V20.0363H25.0454V30.0545H39.1998C37.1348 35.8863 31.586 40.0726 25.0454 40.0726C16.7466 40.0726 10.0182 33.3442 10.0182 25.0454C10.0182 16.7466 16.7466 10.0182 25.0454 10.0182C28.8761 10.0182 32.3611 11.4633 35.0147 13.8238L42.0988 6.73971C37.6257 2.57091 31.6423 0 25.0454 0C11.2141 0 0 11.2141 0 25.0454C0 38.8767 11.2141 50.0908 25.0454 50.0908C38.8767 50.0908 50.0908 38.8767 50.0908 25.0454C50.0908 23.3661 49.918 21.7269 49.6036 20.1403Z" fill="#FFC107"/>
<path d="M2.88776 13.388L11.1164 19.4227C13.343 13.9102 18.7352 10.0182 25.0454 10.0182C28.8761 10.0182 32.3612 11.4633 35.0147 13.8238L42.0988 6.73971C37.6257 2.57091 31.6424 0 25.0454 0C15.4255 0 7.08286 5.43109 2.88776 13.388Z" fill="#FF3D00"/>
<path d="M25.0454 50.0908C31.5146 50.0908 37.3928 47.615 41.8371 43.589L34.0855 37.0296C31.571 38.9343 28.4453 40.0726 25.0454 40.0726C18.5311 40.0726 12.9998 35.9188 10.916 30.1221L2.74872 36.4147C6.89373 44.5257 15.3115 50.0908 25.0454 50.0908Z" fill="#4CAF50"/>
<path d="M49.6037 20.1402H47.5863V20.0363H25.0454V30.0544H39.1998C38.208 32.8557 36.406 35.2714 34.0818 37.0308C34.083 37.0296 34.0843 37.0296 34.0855 37.0283L41.8371 43.5877C41.2886 44.0861 50.0908 37.568 50.0908 25.0453C50.0908 23.366 49.918 21.7268 49.6037 20.1402Z" fill="#1976D2"/>
</svg>
